<svg width="602" height="479" viewBox="0 0 602 479" fill="none" xmlns="http://www.w3.org/2000/svg">
<g opacity="0.15" clip-path="url(#clip0_6365_131978)" filter="url(#filter0_d_6365_131978)">
<g opacity="0.4">
<path d="M341.179 64.7608L427.784 61.5713L424.644 149.108L410.207 148.598L412.416 87.4384L133.242 369.616L123.033 359.298L402.223 77.1043L341.699 79.337L341.179 64.7608Z" fill="url(#paint0_linear_6365_131978)"/>
<path d="M282.138 257.392L281.712 245.272L353.706 242.609L351.103 315.394L339.096 314.963L340.942 264.122L108.849 498.712L100.361 490.132L332.469 255.526L282.138 257.392Z" fill="url(#paint1_linear_6365_131978)"/>
<path d="M380.749 288.171L380.544 282.287L415.492 281.011L414.23 316.335L408.392 316.127L409.292 291.441L296.622 405.323L292.504 401.16L405.189 287.278L380.749 288.171Z" fill="url(#paint2_linear_6365_131978)"/>
<path d="M231.112 284.36L230.907 278.475L265.855 277.183L264.593 312.507L258.771 312.3L259.654 287.629L146.984 401.511L142.866 397.333L255.552 283.451L231.112 284.36Z" fill="url(#paint3_linear_6365_131978)"/>
<path d="M168.395 96.4488L168.19 90.5641L203.138 89.2723L201.86 124.596L196.038 124.389L196.937 99.718L84.267 213.584L80.1489 209.422L192.819 95.5398L168.395 96.4488Z" fill="url(#paint4_linear_6365_131978)"/>
<path d="M411.012 177.271L410.901 174.289L428.636 173.635L427.989 191.56L425.038 191.449L425.48 178.93L368.317 236.724L366.234 234.603L423.397 176.825L411.012 177.271Z" fill="url(#paint5_linear_6365_131978)"/>
<path d="M206.798 230.297L206.704 227.315L224.438 226.661L223.791 244.586L220.841 244.491L221.282 231.956L164.119 289.75L162.021 287.629L219.2 229.851L206.798 230.297Z" fill="url(#paint6_linear_6365_131978)"/>
<path d="M459.213 276.131L459.118 273.149L476.853 272.495L476.206 290.42L473.255 290.324L473.697 277.789L416.534 335.584L414.435 333.462L471.614 275.684L459.213 276.131Z" fill="url(#paint7_linear_6365_131978)"/>
<path d="M287.66 67.5995L287.565 64.6173L305.3 63.9634L304.653 81.8886L301.702 81.777L302.144 69.2581L244.981 127.036L242.882 124.931L300.061 67.137L287.66 67.5995Z" fill="url(#paint8_linear_6365_131978)"/>
<path d="M243.119 211.08L244.949 160.239L12.8721 394.829L4.38354 386.249L236.492 151.644L186.161 153.509L185.735 141.373L257.729 138.726L255.126 211.511L243.119 211.08Z" fill="url(#paint9_linear_6365_131978)"/>
</g>
<path d="M437.298 4.04814L539.807 0.268555L536.083 103.896L518.996 103.274L521.599 30.888L191.178 364.879L179.092 352.663L509.545 18.6562L437.897 21.3035L437.298 4.04814Z" fill="url(#paint10_linear_6365_131978)"/>
<path d="M367.417 232.052L366.912 217.699L452.129 214.557L449.036 300.706L434.836 300.196L436.998 240.009L162.304 517.674L152.254 507.515L426.979 229.851L367.417 232.052Z" fill="url(#paint11_linear_6365_131978)"/>
<path d="M484.126 268.492L483.89 261.523L525.259 259.992L523.761 301.806L516.866 301.567L517.907 272.351L384.552 407.141L379.677 402.213L513.047 267.407L484.126 268.492Z" fill="url(#paint12_linear_6365_131978)"/>
<path d="M307.02 263.963L306.783 256.994L348.152 255.479L346.638 297.293L339.743 297.038L340.8 267.838L207.445 402.611L202.57 397.7L335.94 262.894L307.02 263.963Z" fill="url(#paint13_linear_6365_131978)"/>
<path d="M232.784 41.557L232.532 34.5879L273.902 33.0569L272.403 74.8875L265.508 74.6324L266.565 45.4163L133.21 180.206L128.335 175.278L261.69 40.4885L232.784 41.557Z" fill="url(#paint14_linear_6365_131978)"/>
<path d="M519.942 137.227L519.816 133.687L540.801 132.921L540.043 154.131L536.541 154.004L537.077 139.188L469.421 207.588L466.944 205.084L534.616 136.685L519.942 137.227Z" fill="url(#paint15_linear_6365_131978)"/>
<path d="M278.241 199.997L278.114 196.456L299.115 195.675L298.357 216.901L294.855 216.774L295.391 201.942L227.72 270.342L225.243 267.854L292.914 199.439L278.241 199.997Z" fill="url(#paint16_linear_6365_131978)"/>
<path d="M577.011 254.235L576.884 250.694L597.869 249.929L597.112 271.139L593.609 271.028L594.145 256.196L526.474 324.596L524.013 322.092L591.684 253.692L577.011 254.235Z" fill="url(#paint17_linear_6365_131978)"/>
<path d="M373.965 7.4131L373.839 3.87273L394.823 3.10724L394.066 24.3176L390.563 24.19L391.1 9.37466L323.428 77.7741L320.951 75.2703L388.623 6.87088L373.965 7.4131Z" fill="url(#paint18_linear_6365_131978)"/>
<path d="M321.235 177.223L323.397 117.053L48.7036 394.717L38.6531 384.559L313.378 106.878L253.816 109.095L253.311 94.7423L338.528 91.6006L335.435 177.75L321.235 177.223Z" fill="url(#paint19_linear_6365_131978)"/>
</g>
<defs>
<filter id="filter0_d_6365_131978" x="0.383545" y="0.268555" width="601.486" height="525.405" filterUnits="userSpaceOnUse" color-interpolation-filters="sRGB">
<feFlood flood-opacity="0" result="BackgroundImageFix"/>
<feColorMatrix in="SourceAlpha" type="matrix" values="0 0 0 0 0 0 0 0 0 0 0 0 0 0 0 0 0 0 127 0" result="hardAlpha"/>
<feOffset dy="4"/>
<feGaussianBlur stdDeviation="2"/>
<feComposite in2="hardAlpha" operator="out"/>
<feColorMatrix type="matrix" values="0 0 0 0 0 0 0 0 0 0 0 0 0 0 0 0 0 0 0.25 0"/>
<feBlend mode="normal" in2="BackgroundImageFix" result="effect1_dropShadow_6365_131978"/>
<feBlend mode="normal" in="SourceGraphic" in2="effect1_dropShadow_6365_131978" result="shape"/>
</filter>
<linearGradient id="paint0_linear_6365_131978" x1="394.855" y1="42.3509" x2="185.957" y2="400.36" gradientUnits="userSpaceOnUse">
<stop offset="0.11" stop-color="#389CFF"/>
<stop offset="1" stop-color="#389CFF" stop-opacity="0"/>
</linearGradient>
<linearGradient id="paint1_linear_6365_131978" x1="326.332" y1="226.629" x2="152.652" y2="524.261" gradientUnits="userSpaceOnUse">
<stop offset="0.11" stop-color="#389CFF"/>
<stop offset="1" stop-color="#389CFF" stop-opacity="0"/>
</linearGradient>
<linearGradient id="paint2_linear_6365_131978" x1="402.203" y1="273.254" x2="317.904" y2="417.733" gradientUnits="userSpaceOnUse">
<stop offset="0.11" stop-color="#389CFF"/>
<stop offset="1" stop-color="#389CFF" stop-opacity="0"/>
</linearGradient>
<linearGradient id="paint3_linear_6365_131978" x1="252.566" y1="269.426" x2="168.251" y2="413.914" gradientUnits="userSpaceOnUse">
<stop offset="0.11" stop-color="#389CFF"/>
<stop offset="1" stop-color="#389CFF" stop-opacity="0"/>
</linearGradient>
<linearGradient id="paint4_linear_6365_131978" x1="189.848" y1="81.5159" x2="105.55" y2="225.995" gradientUnits="userSpaceOnUse">
<stop offset="0.11" stop-color="#389CFF"/>
<stop offset="1" stop-color="#389CFF" stop-opacity="0"/>
</linearGradient>
<linearGradient id="paint5_linear_6365_131978" x1="421.893" y1="169.699" x2="379.106" y2="243.013" gradientUnits="userSpaceOnUse">
<stop offset="0.11" stop-color="#389CFF"/>
<stop offset="1" stop-color="#389CFF" stop-opacity="0"/>
</linearGradient>
<linearGradient id="paint6_linear_6365_131978" x1="217.694" y1="222.725" x2="174.912" y2="296.049" gradientUnits="userSpaceOnUse">
<stop offset="0.11" stop-color="#389CFF"/>
<stop offset="1" stop-color="#389CFF" stop-opacity="0"/>
</linearGradient>
<linearGradient id="paint7_linear_6365_131978" x1="470.108" y1="268.558" x2="427.326" y2="341.882" gradientUnits="userSpaceOnUse">
<stop offset="0.11" stop-color="#389CFF"/>
<stop offset="1" stop-color="#389CFF" stop-opacity="0"/>
</linearGradient>
<linearGradient id="paint8_linear_6365_131978" x1="298.555" y1="60.028" x2="255.789" y2="133.343" gradientUnits="userSpaceOnUse">
<stop offset="0.11" stop-color="#389CFF"/>
<stop offset="1" stop-color="#389CFF" stop-opacity="0"/>
</linearGradient>
<linearGradient id="paint9_linear_6365_131978" x1="230.355" y1="122.746" x2="56.6746" y2="420.378" gradientUnits="userSpaceOnUse">
<stop offset="0.11" stop-color="#389CFF"/>
<stop offset="1" stop-color="#389CFF" stop-opacity="0"/>
</linearGradient>
<linearGradient id="paint10_linear_6365_131978" x1="500.83" y1="-22.4813" x2="253.574" y2="401.271" gradientUnits="userSpaceOnUse">
<stop offset="0.11" stop-color="#389CFF"/>
<stop offset="1" stop-color="#389CFF" stop-opacity="0"/>
</linearGradient>
<linearGradient id="paint11_linear_6365_131978" x1="419.726" y1="195.644" x2="214.171" y2="547.926" gradientUnits="userSpaceOnUse">
<stop offset="0.11" stop-color="#389CFF"/>
<stop offset="1" stop-color="#389CFF" stop-opacity="0"/>
</linearGradient>
<linearGradient id="paint12_linear_6365_131978" x1="509.529" y1="250.81" x2="409.744" y2="421.831" gradientUnits="userSpaceOnUse">
<stop offset="0.11" stop-color="#389CFF"/>
<stop offset="1" stop-color="#389CFF" stop-opacity="0"/>
</linearGradient>
<linearGradient id="paint13_linear_6365_131978" x1="332.422" y1="246.298" x2="232.653" y2="417.31" gradientUnits="userSpaceOnUse">
<stop offset="0.11" stop-color="#389CFF"/>
<stop offset="1" stop-color="#389CFF" stop-opacity="0"/>
</linearGradient>
<linearGradient id="paint14_linear_6365_131978" x1="258.173" y1="23.8755" x2="158.382" y2="194.887" gradientUnits="userSpaceOnUse">
<stop offset="0.11" stop-color="#389CFF"/>
<stop offset="1" stop-color="#389CFF" stop-opacity="0"/>
</linearGradient>
<linearGradient id="paint15_linear_6365_131978" x1="532.82" y1="128.262" x2="482.182" y2="215.033" gradientUnits="userSpaceOnUse">
<stop offset="0.11" stop-color="#389CFF"/>
<stop offset="1" stop-color="#389CFF" stop-opacity="0"/>
</linearGradient>
<linearGradient id="paint16_linear_6365_131978" x1="291.133" y1="191.016" x2="240.499" y2="277.796" gradientUnits="userSpaceOnUse">
<stop offset="0.11" stop-color="#389CFF"/>
<stop offset="1" stop-color="#389CFF" stop-opacity="0"/>
</linearGradient>
<linearGradient id="paint17_linear_6365_131978" x1="589.889" y1="245.27" x2="539.25" y2="332.041" gradientUnits="userSpaceOnUse">
<stop offset="0.11" stop-color="#389CFF"/>
<stop offset="1" stop-color="#389CFF" stop-opacity="0"/>
</linearGradient>
<linearGradient id="paint18_linear_6365_131978" x1="386.841" y1="-1.55159" x2="336.208" y2="85.2285" gradientUnits="userSpaceOnUse">
<stop offset="0.11" stop-color="#389CFF"/>
<stop offset="1" stop-color="#389CFF" stop-opacity="0"/>
</linearGradient>
<linearGradient id="paint19_linear_6365_131978" x1="306.126" y1="72.6877" x2="100.57" y2="424.97" gradientUnits="userSpaceOnUse">
<stop offset="0.11" stop-color="#389CFF"/>
<stop offset="1" stop-color="#389CFF" stop-opacity="0"/>
</linearGradient>
<clipPath id="clip0_6365_131978">
<rect width="593.486" height="517.405" fill="white" transform="translate(4.38354 0.268555)"/>
</clipPath>
</defs>
</svg>
